<svg version="1.1" preserveAspectRatio="none" xmlns="http://www.w3.org/2000/svg" width="500" height="500" viewBox="0 0 500 500"><rect width="100%" height="100%" fill="#1A244D" fill-opacity="1"/><svg viewBox="685.5775 588.9679 535.7717 139.48" width="333" height="86.69147698543986" x="83.5px" y="206.6543px" xmlns="http://www.w3.org/2000/svg" xmlns:xlink="http://www.w3.org/1999/xlink" preserveAspectRatio="none"><defs></defs><style>.background {fill:#1A244D;fill-opacity:1;}.icon1 {fill:#FFCC57;fill-opacity:1;}.icon1-str {stroke:#FFCC57;stroke-opacity:1;}.icon2 {fill:#3EA0C0;fill-opacity:1;}.icon3 {fill:#0AF9FF;fill-opacity:0.95;}.icon3-str {stroke:#0AF9FF;stroke-opacity:0.95;}</style><g opacity="1" transform="rotate(0 779.5773 588.9679)">
<svg width="441.7719" height="98" x="779.5773" y="588.9679" version="1.1" preserveAspectRatio="none" viewBox="0 0 441.7719 98">
  <defs><rect x="0" y="0" width="441.7719" height="98" rx="0px" ry="0px" id="id-B7crM0kCi1678520468588"></rect></defs><use class="icon1 icon3-str" style="stroke-width:0;" xlink:href="#id-B7crM0kCi1678520468588"></use>
</svg>
</g><g opacity="1" transform="rotate(0 846.6026 710.9679)">
<svg width="213.7215" height="17.48" x="846.6026" y="710.9679" version="1.1" preserveAspectRatio="none" viewBox="4.2 -30.28 468.03999999999996 38.28">
  <g transform="matrix(1 0 0 1 0 0)" class="icon1"><path id="id-6izo4zJp19" d="M24.04 0L13.32-12.44L8.20-7.24L8.20 0L4.20 0L4.20-28L8.20-28L8.20-12.36L23.40-28L27.96-28L16-15.40L28.72 0L24.04 0Z M52.64-10.48Q52.64-10.04 52.56-9.32L52.56-9.32L35.36-9.32Q35.72-6.52 37.82-4.82Q39.92-3.12 43.04-3.12L43.04-3.12Q46.84-3.12 49.16-5.68L49.16-5.68L51.28-3.20Q49.84-1.52 47.70-0.64Q45.56 0.24 42.92 0.24L42.92 0.24Q39.56 0.24 36.96-1.14Q34.36-2.52 32.94-5Q31.52-7.48 31.52-10.60L31.52-10.60Q31.52-13.68 32.90-16.16Q34.28-18.64 36.70-20.02Q39.12-21.40 42.16-21.40L42.16-21.40Q45.20-21.40 47.58-20.02Q49.96-18.64 51.30-16.16Q52.64-13.68 52.64-10.48L52.64-10.48ZM42.16-18.16Q39.40-18.16 37.54-16.48Q35.68-14.80 35.36-12.08L35.36-12.08L48.96-12.08Q48.64-14.76 46.78-16.46Q44.92-18.16 42.16-18.16L42.16-18.16Z M79.12-10.48Q79.12-10.04 79.04-9.32L79.04-9.32L61.84-9.32Q62.20-6.52 64.30-4.82Q66.40-3.12 69.52-3.12L69.52-3.12Q73.32-3.12 75.64-5.68L75.64-5.68L77.76-3.20Q76.32-1.52 74.18-0.64Q72.04 0.24 69.40 0.24L69.40 0.24Q66.04 0.24 63.44-1.14Q60.84-2.52 59.42-5Q58-7.48 58-10.60L58-10.60Q58-13.68 59.38-16.16Q60.76-18.64 63.18-20.02Q65.60-21.40 68.64-21.40L68.64-21.40Q71.68-21.40 74.06-20.02Q76.44-18.64 77.78-16.16Q79.12-13.68 79.12-10.48L79.12-10.48ZM68.64-18.16Q65.88-18.16 64.02-16.48Q62.16-14.80 61.84-12.08L61.84-12.08L75.44-12.08Q75.12-14.76 73.26-16.46Q71.40-18.16 68.64-18.16L68.64-18.16Z M97.68-21.40Q100.76-21.40 103.20-20.04Q105.64-18.68 107.02-16.24Q108.40-13.80 108.40-10.60L108.40-10.60Q108.40-7.40 107.02-4.94Q105.64-2.48 103.20-1.12Q100.76 0.24 97.68 0.24L97.68 0.24Q95.40 0.24 93.50-0.64Q91.60-1.52 90.28-3.20L90.28-3.20L90.28 7.76L86.44 7.76L86.44-21.20L90.12-21.20L90.12-17.84Q91.40-19.60 93.36-20.50Q95.32-21.40 97.68-21.40L97.68-21.40ZM97.36-3.12Q99.40-3.12 101.02-4.06Q102.64-5 103.58-6.70Q104.52-8.40 104.52-10.60L104.52-10.60Q104.52-12.80 103.58-14.50Q102.64-16.20 101.02-17.12Q99.40-18.04 97.36-18.04L97.36-18.04Q95.36-18.04 93.74-17.10Q92.12-16.16 91.18-14.48Q90.24-12.80 90.24-10.60L90.24-10.60Q90.24-8.40 91.16-6.70Q92.08-5 93.72-4.06Q95.36-3.12 97.36-3.12L97.36-3.12Z M155-21.40Q159-21.40 161.34-19.08Q163.68-16.76 163.68-12.20L163.68-12.20L163.68 0L159.84 0L159.84-11.76Q159.84-14.84 158.42-16.40Q157-17.96 154.36-17.96L154.36-17.96Q151.44-17.96 149.72-16.14Q148-14.32 148-10.92L148-10.92L148 0L144.16 0L144.16-11.76Q144.16-14.84 142.74-16.40Q141.32-17.96 138.68-17.96L138.68-17.96Q135.76-17.96 134.04-16.14Q132.32-14.32 132.32-10.92L132.32-10.92L132.32 0L128.48 0L128.48-21.20L132.16-21.20L132.16-18.04Q133.32-19.68 135.20-20.54Q137.08-21.40 139.48-21.40L139.48-21.40Q141.96-21.40 143.88-20.40Q145.80-19.40 146.84-17.48L146.84-17.48Q148.04-19.32 150.18-20.36Q152.32-21.40 155-21.40L155-21.40Z M181.96 0.24Q178.80 0.24 176.28-1.16Q173.76-2.56 172.34-5.02Q170.92-7.48 170.92-10.60L170.92-10.60Q170.92-13.72 172.34-16.18Q173.76-18.64 176.28-20.02Q178.80-21.40 181.96-21.40L181.96-21.40Q185.12-21.40 187.62-20.02Q190.12-18.64 191.54-16.18Q192.96-13.72 192.96-10.60L192.96-10.60Q192.96-7.48 191.54-5.02Q190.12-2.56 187.62-1.16Q185.12 0.24 181.96 0.24L181.96 0.24ZM181.96-3.12Q184-3.12 185.62-4.06Q187.24-5 188.16-6.70Q189.08-8.40 189.08-10.60L189.08-10.60Q189.08-12.80 188.16-14.50Q187.24-16.20 185.62-17.12Q184-18.04 181.96-18.04L181.96-18.04Q179.92-18.04 178.30-17.12Q176.68-16.20 175.74-14.50Q174.80-12.80 174.80-10.60L174.80-10.60Q174.80-8.40 175.74-6.70Q176.68-5 178.30-4.06Q179.92-3.12 181.96-3.12L181.96-3.12Z M214.68-21.20L218.44-21.20L209.16 0L205.24 0L195.96-21.20L199.96-21.20L207.24-4.20L214.68-21.20Z M224.04 0L224.04-21.20L227.88-21.20L227.88 0L224.04 0ZM225.96-25.28Q224.84-25.28 224.10-26Q223.36-26.72 223.36-27.76L223.36-27.76Q223.36-28.80 224.10-29.54Q224.84-30.28 225.96-30.28L225.96-30.28Q227.08-30.28 227.82-29.58Q228.56-28.88 228.56-27.84L228.56-27.84Q228.56-26.76 227.82-26.02Q227.08-25.28 225.96-25.28L225.96-25.28Z M248.52-21.40Q252.56-21.40 254.94-19.06Q257.32-16.72 257.32-12.20L257.32-12.20L257.32 0L253.48 0L253.48-11.76Q253.48-14.84 252.00-16.40Q250.52-17.96 247.76-17.96L247.76-17.96Q244.64-17.96 242.84-16.14Q241.04-14.32 241.04-10.92L241.04-10.92L241.04 0L237.20 0L237.20-21.20L240.88-21.20L240.88-18Q242.04-19.64 244.02-20.52Q246.00-21.40 248.52-21.40L248.52-21.40Z M283.20-21.20L286.84-21.20L286.84-2.88Q286.84 2.68 284.08 5.34Q281.32 8 275.84 8L275.84 8Q272.84 8 270.12 7.18Q267.40 6.36 265.72 4.84L265.72 4.84L267.56 1.88Q269.04 3.16 271.22 3.90Q273.40 4.64 275.72 4.64L275.72 4.64Q279.44 4.64 281.22 2.88Q283 1.12 283-2.48L283-2.48L283-4.16Q281.64-2.52 279.66-1.70Q277.68-0.88 275.36-0.88L275.36-0.88Q272.32-0.88 269.86-2.18Q267.40-3.48 266-5.82Q264.60-8.16 264.60-11.16L264.60-11.16Q264.60-14.16 266-16.50Q267.40-18.84 269.86-20.12Q272.32-21.40 275.36-21.40L275.36-21.40Q277.76-21.40 279.82-20.52Q281.88-19.64 283.20-17.92L283.20-17.92L283.20-21.20ZM275.80-4.24Q277.88-4.24 279.54-5.12Q281.20-6 282.14-7.58Q283.08-9.16 283.08-11.16L283.08-11.16Q283.08-14.24 281.04-16.14Q279-18.04 275.80-18.04L275.80-18.04Q272.56-18.04 270.52-16.14Q268.48-14.24 268.48-11.16L268.48-11.16Q268.48-9.16 269.42-7.58Q270.36-6 272.02-5.12Q273.68-4.24 275.80-4.24L275.80-4.24Z M316.68-26.76Q313.24-26.76 313.24-23.04L313.24-23.04L313.24-21.20L319.40-21.20L319.40-18.04L313.32-18.04L313.32 0L309.48 0L309.48-18.04L305.88-18.04L305.88-21.20L309.48-21.20L309.48-23.08Q309.48-26.24 311.32-28.08Q313.16-29.92 316.48-29.92L316.48-29.92Q317.76-29.92 318.88-29.60Q320.00-29.28 320.80-28.68L320.80-28.68L319.64-25.76Q318.32-26.76 316.68-26.76L316.68-26.76Z M333.80 0.24Q330.64 0.24 328.12-1.16Q325.60-2.56 324.18-5.02Q322.76-7.48 322.76-10.60L322.76-10.60Q322.76-13.72 324.18-16.18Q325.60-18.64 328.12-20.02Q330.64-21.40 333.80-21.40L333.80-21.40Q336.96-21.40 339.46-20.02Q341.96-18.64 343.38-16.18Q344.80-13.72 344.80-10.60L344.80-10.60Q344.80-7.48 343.38-5.02Q341.96-2.56 339.46-1.16Q336.96 0.24 333.80 0.24L333.80 0.24ZM333.80-3.12Q335.84-3.12 337.46-4.06Q339.08-5 340.00-6.70Q340.92-8.40 340.92-10.60L340.92-10.60Q340.92-12.80 340.00-14.50Q339.08-16.20 337.46-17.12Q335.84-18.04 333.80-18.04L333.80-18.04Q331.76-18.04 330.14-17.12Q328.52-16.20 327.58-14.50Q326.64-12.80 326.64-10.60L326.64-10.60Q326.64-8.40 327.58-6.70Q328.52-5 330.14-4.06Q331.76-3.12 333.80-3.12L333.80-3.12Z M355.80-17.64Q356.80-19.48 358.76-20.44Q360.72-21.40 363.52-21.40L363.52-21.40L363.52-17.68Q363.20-17.72 362.64-17.72L362.64-17.72Q359.52-17.72 357.74-15.86Q355.96-14 355.96-10.56L355.96-10.56L355.96 0L352.12 0L352.12-21.20L355.80-21.20L355.80-17.64Z M399.76-21.20L403.20-21.20L395.28 0L391.60 0L385.48-16.08L379.28 0L375.60 0L367.72-21.20L371.36-21.20L377.52-4.32L383.92-21.20L387.16-21.20L393.44-4.24L399.76-21.20Z M416.12-21.40Q420.52-21.40 422.86-19.24Q425.20-17.08 425.20-12.80L425.20-12.80L425.20 0L421.56 0L421.56-2.80Q420.60-1.32 418.82-0.54Q417.04 0.24 414.60 0.24L414.60 0.24Q411.04 0.24 408.90-1.48Q406.76-3.20 406.76-6L406.76-6Q406.76-8.80 408.80-10.50Q410.84-12.20 415.28-12.20L415.28-12.20L421.36-12.20L421.36-12.96Q421.36-15.44 419.92-16.76Q418.48-18.08 415.68-18.08L415.68-18.08Q413.80-18.08 412-17.46Q410.20-16.84 408.96-15.80L408.96-15.80L407.36-18.68Q409-20 411.28-20.70Q413.56-21.40 416.12-21.40L416.12-21.40ZM415.24-2.72Q417.44-2.72 419.04-3.70Q420.64-4.68 421.36-6.48L421.36-6.48L421.36-9.44L415.44-9.44Q410.56-9.44 410.56-6.16L410.56-6.16Q410.56-4.56 411.80-3.64Q413.04-2.72 415.24-2.72L415.24-2.72Z M438-17.64Q439-19.48 440.96-20.44Q442.92-21.40 445.72-21.40L445.72-21.40L445.72-17.68Q445.40-17.72 444.84-17.72L444.84-17.72Q441.72-17.72 439.94-15.86Q438.16-14 438.16-10.56L438.16-10.56L438.16 0L434.32 0L434.32-21.20L438-21.20L438-17.64Z M468.40-29.68L472.24-29.68L472.24 0L468.56 0L468.56-3.36Q467.28-1.60 465.32-0.68Q463.36 0.24 461.00 0.24L461.00 0.24Q457.92 0.24 455.48-1.12Q453.04-2.48 451.66-4.94Q450.28-7.40 450.28-10.60L450.28-10.60Q450.28-13.80 451.66-16.24Q453.04-18.68 455.48-20.04Q457.92-21.40 461.00-21.40L461.00-21.40Q463.28-21.40 465.20-20.54Q467.12-19.68 468.40-18L468.40-18L468.40-29.68ZM461.32-3.12Q463.32-3.12 464.96-4.06Q466.60-5 467.52-6.70Q468.44-8.40 468.44-10.60L468.44-10.60Q468.44-12.80 467.52-14.50Q466.60-16.20 464.96-17.12Q463.32-18.04 461.32-18.04L461.32-18.04Q459.28-18.04 457.66-17.12Q456.04-16.20 455.10-14.50Q454.16-12.80 454.16-10.60L454.16-10.60Q454.16-8.40 455.10-6.70Q456.04-5 457.66-4.06Q459.28-3.12 461.32-3.12L461.32-3.12Z"/></g>
</svg>
</g><g opacity="1" transform="rotate(0 809.5773 618.9679)">
<svg width="381.7719" height="38" x="809.5773" y="618.9679" version="1.1" preserveAspectRatio="none" viewBox="3.32 -31.48 319.48 31.8">
  <g transform="matrix(1 0 0 1 0 0)" class="background"><path id="id-D6z1nYkh15" d="M22.60-28L29-28L29 0L23.68 0L9.72-17L9.72 0L3.32 0L3.32-28L8.68-28L22.60-11L22.60-28Z M35.20 0L35.20-21.52L41.44-21.52L41.44 0L35.20 0ZM38.32-24.52Q36.60-24.52 35.52-25.52Q34.44-26.52 34.44-28L34.44-28Q34.44-29.48 35.52-30.48Q36.60-31.48 38.32-31.48L38.32-31.48Q40.04-31.48 41.12-30.52Q42.20-29.56 42.20-28.12L42.20-28.12Q42.20-26.56 41.12-25.54Q40.04-24.52 38.32-24.52L38.32-24.52Z M57.64 0.32Q54.20 0.32 51.46-1.10Q48.72-2.52 47.18-5.04Q45.64-7.56 45.64-10.76L45.64-10.76Q45.64-13.96 47.18-16.48Q48.72-19 51.46-20.42Q54.20-21.84 57.64-21.84L57.64-21.84Q61.04-21.84 63.58-20.42Q66.12-19 67.28-16.36L67.28-16.36L62.44-13.76Q60.76-16.72 57.60-16.72L57.60-16.72Q55.16-16.72 53.56-15.12Q51.96-13.52 51.96-10.76L51.96-10.76Q51.96-8 53.56-6.40Q55.16-4.80 57.60-4.80L57.60-4.80Q60.80-4.80 62.44-7.76L62.44-7.76L67.28-5.12Q66.12-2.56 63.58-1.12Q61.04 0.32 57.64 0.32L57.64 0.32Z M80.84 0.32Q77.44 0.32 74.74-1.10Q72.04-2.52 70.52-5.04Q69-7.56 69-10.76L69-10.76Q69-13.96 70.52-16.48Q72.04-19 74.74-20.42Q77.44-21.84 80.84-21.84L80.84-21.84Q84.24-21.84 86.92-20.42Q89.60-19 91.12-16.48Q92.64-13.96 92.64-10.76L92.64-10.76Q92.64-7.56 91.12-5.04Q89.60-2.52 86.92-1.10Q84.24 0.32 80.84 0.32L80.84 0.32ZM80.84-4.80Q83.24-4.80 84.78-6.42Q86.32-8.04 86.32-10.76L86.32-10.76Q86.32-13.48 84.78-15.10Q83.24-16.72 80.84-16.72L80.84-16.72Q78.44-16.72 76.88-15.10Q75.32-13.48 75.32-10.76L75.32-10.76Q75.32-8.04 76.88-6.42Q78.44-4.80 80.84-4.80L80.84-4.80Z M96.80 0L96.80-29.68L103.04-29.68L103.04 0L96.80 0Z M117.52-21.84Q122.52-21.84 125.20-19.46Q127.88-17.08 127.88-12.28L127.88-12.28L127.88 0L122.04 0L122.04-2.68Q120.28 0.32 115.48 0.32L115.48 0.32Q113.00 0.32 111.18-0.52Q109.36-1.36 108.40-2.84Q107.44-4.32 107.44-6.20L107.44-6.20Q107.44-9.20 109.70-10.92Q111.96-12.64 116.68-12.64L116.68-12.64L121.64-12.64Q121.64-14.68 120.40-15.78Q119.16-16.88 116.68-16.88L116.68-16.88Q114.96-16.88 113.30-16.34Q111.64-15.80 110.48-14.88L110.48-14.88L108.24-19.24Q110.00-20.48 112.46-21.16Q114.92-21.84 117.52-21.84L117.52-21.84ZM117.04-3.88Q118.64-3.88 119.88-4.62Q121.12-5.36 121.64-6.80L121.64-6.80L121.64-9L117.36-9Q113.52-9 113.52-6.48L113.52-6.48Q113.52-5.28 114.46-4.58Q115.40-3.88 117.04-3.88L117.04-3.88Z M140.76 0.32Q138.08 0.32 135.52-0.34Q132.96-1 131.44-2L131.44-2L133.52-6.48Q134.96-5.56 137.00-4.98Q139.04-4.40 141-4.40L141-4.40Q144.96-4.40 144.96-6.36L144.96-6.36Q144.96-7.28 143.88-7.68Q142.80-8.08 140.56-8.36L140.56-8.36Q137.92-8.76 136.20-9.28Q134.48-9.80 133.22-11.12Q131.96-12.44 131.96-14.88L131.96-14.88Q131.96-16.92 133.14-18.50Q134.32-20.08 136.58-20.96Q138.84-21.84 141.92-21.84L141.92-21.84Q144.20-21.84 146.46-21.34Q148.72-20.84 150.20-19.96L150.20-19.96L148.12-15.52Q145.28-17.12 141.92-17.12L141.92-17.12Q139.92-17.12 138.92-16.56Q137.92-16 137.92-15.12L137.92-15.12Q137.92-14.12 139-13.72Q140.08-13.32 142.44-12.96L142.44-12.96Q145.08-12.52 146.76-12.02Q148.44-11.52 149.68-10.20Q150.92-8.88 150.92-6.52L150.92-6.52Q150.92-4.52 149.72-2.96Q148.52-1.40 146.22-0.54Q143.92 0.32 140.76 0.32L140.76 0.32Z M172.96-5.20L188.20-5.20L188.20 0L166.52 0L166.52-28L187.68-28L187.68-22.80L172.96-22.80L172.96-16.72L185.96-16.72L185.96-11.68L172.96-11.68L172.96-5.20Z M200.00 0.32Q197.32 0.32 194.76-0.34Q192.20-1 190.68-2L190.68-2L192.76-6.48Q194.20-5.56 196.24-4.98Q198.28-4.40 200.24-4.40L200.24-4.40Q204.20-4.40 204.20-6.36L204.20-6.36Q204.20-7.28 203.12-7.68Q202.04-8.08 199.80-8.36L199.80-8.36Q197.16-8.76 195.44-9.28Q193.72-9.80 192.46-11.12Q191.20-12.44 191.20-14.88L191.20-14.88Q191.20-16.92 192.38-18.50Q193.56-20.08 195.82-20.96Q198.08-21.84 201.16-21.84L201.16-21.84Q203.44-21.84 205.70-21.34Q207.96-20.84 209.44-19.96L209.44-19.96L207.36-15.52Q204.52-17.12 201.16-17.12L201.16-17.12Q199.16-17.12 198.16-16.56Q197.16-16 197.16-15.12L197.16-15.12Q197.16-14.12 198.24-13.72Q199.32-13.32 201.68-12.96L201.68-12.96Q204.32-12.52 206.00-12.02Q207.68-11.52 208.92-10.20Q210.16-8.88 210.16-6.52L210.16-6.52Q210.16-4.52 208.96-2.96Q207.76-1.40 205.46-0.54Q203.16 0.32 200.00 0.32L200.00 0.32Z M224.40 0.32Q220.96 0.32 218.22-1.10Q215.48-2.52 213.94-5.04Q212.40-7.56 212.40-10.76L212.40-10.76Q212.40-13.96 213.94-16.48Q215.48-19 218.22-20.42Q220.96-21.84 224.40-21.84L224.40-21.84Q227.80-21.84 230.34-20.42Q232.88-19 234.04-16.36L234.04-16.36L229.20-13.76Q227.52-16.72 224.36-16.72L224.36-16.72Q221.92-16.72 220.32-15.12Q218.72-13.52 218.72-10.76L218.72-10.76Q218.72-8 220.32-6.40Q221.92-4.80 224.36-4.80L224.36-4.80Q227.56-4.80 229.20-7.76L229.20-7.76L234.04-5.12Q232.88-2.56 230.34-1.12Q227.80 0.32 224.40 0.32L224.40 0.32Z M246.32-21.84Q251.32-21.84 254.00-19.46Q256.68-17.08 256.68-12.28L256.68-12.28L256.68 0L250.84 0L250.84-2.68Q249.08 0.32 244.28 0.32L244.28 0.32Q241.80 0.32 239.98-0.52Q238.16-1.36 237.20-2.84Q236.24-4.32 236.24-6.20L236.24-6.20Q236.24-9.20 238.50-10.92Q240.76-12.64 245.48-12.64L245.48-12.64L250.44-12.64Q250.44-14.68 249.20-15.78Q247.96-16.88 245.48-16.88L245.48-16.88Q243.76-16.88 242.10-16.34Q240.44-15.80 239.28-14.88L239.28-14.88L237.04-19.24Q238.80-20.48 241.26-21.16Q243.72-21.84 246.32-21.84L246.32-21.84ZM245.84-3.88Q247.44-3.88 248.68-4.62Q249.92-5.36 250.44-6.80L250.44-6.80L250.44-9L246.16-9Q242.32-9 242.32-6.48L242.32-6.48Q242.32-5.28 243.26-4.58Q244.20-3.88 245.84-3.88L245.84-3.88Z M268.28-18.68Q269.40-20.24 271.30-21.04Q273.20-21.84 275.68-21.84L275.68-21.84L275.68-16.08Q274.64-16.16 274.28-16.16L274.28-16.16Q271.60-16.16 270.08-14.66Q268.56-13.16 268.56-10.16L268.56-10.16L268.56 0L262.32 0L262.32-21.52L268.28-21.52L268.28-18.68Z M289.44 0.32Q286.04 0.32 283.34-1.10Q280.64-2.52 279.12-5.04Q277.60-7.56 277.60-10.76L277.60-10.76Q277.60-13.96 279.12-16.48Q280.64-19 283.34-20.42Q286.04-21.84 289.44-21.84L289.44-21.84Q292.84-21.84 295.52-20.42Q298.20-19 299.72-16.48Q301.24-13.96 301.24-10.76L301.24-10.76Q301.24-7.56 299.72-5.04Q298.20-2.52 295.52-1.10Q292.84 0.32 289.44 0.32L289.44 0.32ZM289.44-4.80Q291.84-4.80 293.38-6.42Q294.92-8.04 294.92-10.76L294.92-10.76Q294.92-13.48 293.38-15.10Q291.84-16.72 289.44-16.72L289.44-16.72Q287.04-16.72 285.48-15.10Q283.92-13.48 283.92-10.76L283.92-10.76Q283.92-8.04 285.48-6.42Q287.04-4.80 289.44-4.80L289.44-4.80Z M312.64 0.32Q309.96 0.32 307.40-0.34Q304.84-1 303.32-2L303.32-2L305.40-6.48Q306.84-5.56 308.88-4.98Q310.92-4.40 312.88-4.40L312.88-4.40Q316.84-4.40 316.84-6.36L316.84-6.36Q316.84-7.28 315.76-7.68Q314.68-8.08 312.44-8.36L312.44-8.36Q309.80-8.76 308.08-9.28Q306.36-9.80 305.10-11.12Q303.84-12.44 303.84-14.88L303.84-14.88Q303.84-16.92 305.02-18.50Q306.20-20.08 308.46-20.96Q310.72-21.84 313.80-21.84L313.80-21.84Q316.08-21.84 318.34-21.34Q320.60-20.84 322.08-19.96L322.08-19.96L320.00-15.52Q317.16-17.12 313.80-17.12L313.80-17.12Q311.80-17.12 310.80-16.56Q309.80-16 309.80-15.12L309.80-15.12Q309.80-14.12 310.88-13.72Q311.96-13.32 314.32-12.96L314.32-12.96Q316.96-12.52 318.64-12.02Q320.32-11.52 321.56-10.20Q322.80-8.88 322.80-6.52L322.80-6.52Q322.80-4.52 321.60-2.96Q320.40-1.40 318.10-0.54Q315.80 0.32 312.64 0.32L312.64 0.32Z"/></g>
</svg>
</g><g opacity="1" transform="rotate(0 685.5775 588.9679)">
<svg width="97.9998" height="98" x="685.5775" y="588.9679" version="1.1" preserveAspectRatio="none" viewBox="0 0 97.9998 98">
  <defs><rect x="1.9599959999999998" y="1.9599959999999998" width="94.079808" height="94.080008" rx="0px" ry="0px" id="id-tBXipXk0b1678520468588"></rect></defs><use class="background icon1-str" style="stroke-width:3.9199919999999997;" xlink:href="#id-tBXipXk0b1678520468588"></use>
</svg>
</g><g opacity="1" transform="rotate(0 705.5775 602.6877)">
<svg width="57.9998" height="70.5604" x="705.5775" y="602.6877" version="1.1" preserveAspectRatio="none" viewBox="29.298999786376953 0.9386491775512695 231.0559844970703 281.0946044921875">
  <g transform="matrix(1 0 0 1 0 0)" class="icon1"><path d="M214.057,218.789c-0.062-0.049-1.818-0.99-4.425-2.384h-0.004c-7.868-4.198-23.471-12.471-23.471-12.471  c-0.4-0.212-1.609-1.011-2.738-0.39l-20.438,12.865l-9.494,5.973c-0.662,0.48-0.588,1.267,0.52,1.863l26.843,14.19  c1.83,0.974,2.321,0.608,3.422,0.026l29.517-18.649C214.419,219.421,214.38,219.03,214.057,218.789z M183.105,236.621l-0.373,0.188  c-0.336-0.039-0.549-0.13-0.861-0.295l-25.401-13.43l27.926-17.58c0.123,0.037,0.707,0.338,0.746,0.357l25.342,13.463  L183.105,236.621z"></path><path d="M207.766,175.229c-0.349-0.433-0.834-0.821-1.451-1.129c-2.25-1.13-5.647-1.031-7.711,0.267  c-0.201,0.127-0.385,0.26-0.547,0.398c-0.388,0.169-0.761,0.361-1.115,0.587c-3.541,2.228-3.272,4.628-1.28,6.321  c-0.236-0.182-0.502-0.35-0.8-0.498c-2.25-1.129-5.647-1.03-7.711,0.268c-0.203,0.126-0.385,0.26-0.547,0.398  c-0.388,0.169-0.76,0.363-1.115,0.588c-3.541,2.229-3.272,4.628-1.28,6.32c-0.236-0.182-0.502-0.349-0.799-0.498  c-2.25-1.129-5.648-1.031-7.714,0.268c-0.2,0.128-0.383,0.262-0.545,0.398c-0.387,0.168-0.76,0.363-1.114,0.588  c-3.541,2.229-3.273,4.629-1.281,6.322c-0.236-0.184-0.504-0.351-0.799-0.498c-2.25-1.131-5.65-1.033-7.713,0.265  c-0.201,0.128-0.384,0.262-0.548,0.399c-0.385,0.168-0.758,0.362-1.112,0.588c-3.541,2.228-3.273,4.629-1.283,6.32  c-0.234-0.182-0.502-0.349-0.799-0.497c-2.248-1.13-5.648-1.032-7.711,0.267c-0.201,0.128-0.383,0.262-0.547,0.4  c-0.08,0.033-0.16,0.071-0.24,0.112h-0.012c-0.298,0.142-0.584,0.298-0.863,0.474c-3.539,2.229-3.271,4.629-1.281,6.32  c-0.234-0.182-0.502-0.35-0.799-0.498c-2.248-1.127-5.648-1.029-7.709,0.268c-0.203,0.127-0.385,0.262-0.547,0.399  c-0.387,0.168-0.76,0.362-1.117,0.586c-3.11,1.959-3.281,4.05-1.925,5.677c0.187,0.226,0.403,0.44,0.644,0.646  c-0.235-0.182-0.502-0.35-0.798-0.498c-0.105-0.053-0.213-0.104-0.324-0.146v-0.004c-1.952-0.842-4.615-0.838-6.569-0.002h-0.015  c-0.285,0.123-0.554,0.264-0.804,0.42c-0.202,0.127-0.384,0.262-0.546,0.399c-0.386,0.167-0.759,0.362-1.116,0.586  c-3.54,2.229-3.272,4.629-1.282,6.321c-0.235-0.182-0.502-0.35-0.798-0.497c-2.25-1.13-5.649-1.031-7.711,0.267  c-0.202,0.127-0.384,0.262-0.547,0.4c-0.386,0.167-0.759,0.361-1.115,0.586c-3.54,2.227-3.272,4.627-1.282,6.32  c-0.235-0.182-0.502-0.35-0.799-0.498c-2.25-1.129-5.648-1.03-7.71,0.268c-0.202,0.126-0.384,0.262-0.547,0.398  c-0.386,0.168-0.759,0.363-1.115,0.588c-8.295,5.219,4.316,11.391,11.023,7.172c4.291-2.701,2.988-5.655-0.198-7.294  c-0.134-0.165-0.288-0.325-0.462-0.478c2.751,2.162,8.358,3.057,12.114,0.695c4.291-2.7,2.988-5.656-0.198-7.296  c-0.134-0.166-0.288-0.326-0.462-0.476c2.751,2.16,8.358,3.057,12.114,0.692c4.292-2.7,2.988-5.653-0.197-7.295  c-0.135-0.165-0.289-0.325-0.463-0.478c2.75,2.162,8.359,3.06,12.114,0.694c0.778-0.489,1.375-0.987,1.807-1.489h0.004  c1.943-2.242,0.598-4.463-2.008-5.804c-0.135-0.167-0.289-0.327-0.463-0.479c2.75,2.164,8.358,3.061,12.112,0.695  c4.291-2.699,2.988-5.654-0.196-7.293c-0.097-0.119-0.203-0.234-0.32-0.345v-0.003c-0.045-0.045-0.094-0.087-0.143-0.131  c0.055,0.044,0.108,0.086,0.166,0.134h0.01c2.807,2.063,8.26,2.876,11.938,0.562c0.299-0.188,0.568-0.375,0.814-0.562v-0.002  c3.287-2.539,1.953-5.203-1.012-6.729c-0.134-0.166-0.289-0.326-0.464-0.479c2.752,2.164,8.359,3.06,12.113,0.696  c4.291-2.699,2.987-5.653-0.197-7.295c-0.135-0.168-0.289-0.326-0.463-0.478c2.752,2.161,8.358,3.058,12.115,0.694  c4.289-2.699,2.985-5.655-0.199-7.293c-0.133-0.168-0.287-0.327-0.463-0.479c2.752,2.161,8.358,3.059,12.114,0.693  C212.253,179.823,210.951,176.869,207.766,175.229z M107.848,232.361c3.254-2.048,9.603,0.266,6.413,2.271  C111.007,236.68,104.658,234.369,107.848,232.361z M116.674,234.16c1.244,1.082,1.014,2.194-1.207,3.594  c-2.778,1.746-6.686,1.315-9.444-0.068c-2.381-1.193-2.14-2.696-0.652-3.824c0.149,0.934,0.86,1.824,2.05,2.424  c2.25,1.129,5.648,1.03,7.71-0.268C115.976,235.485,116.479,234.835,116.674,234.16z M119.301,225.285  c3.253-2.049,9.602,0.266,6.413,2.271C122.46,229.604,116.111,227.292,119.301,225.285z M128.127,227.082  c1.244,1.082,1.014,2.196-1.207,3.594c-2.778,1.748-6.686,1.318-9.444-0.064c-2.38-1.195-2.14-2.699-0.652-3.826  c0.149,0.936,0.859,1.826,2.049,2.424c2.25,1.129,5.649,1.029,7.711-0.268C127.429,228.41,127.932,227.759,128.127,227.082z   M130.754,218.208c3.254-2.049,9.603,0.266,6.413,2.271C133.913,222.529,127.564,220.214,130.754,218.208z M139.58,220.007  c1.244,1.08,1.016,2.195-1.206,3.592c-2.779,1.748-6.686,1.318-9.444-0.064c-2.38-1.195-2.14-2.697-0.652-3.826  c0.149,0.935,0.859,1.826,2.049,2.424c2.25,1.13,5.649,1.029,7.711-0.269C138.882,221.332,139.387,220.682,139.58,220.007z   M142.207,211.132c3.253-2.049,9.604,0.265,6.414,2.271C145.367,215.451,139.018,213.139,142.207,211.132z M151.033,212.929  c1.213,1.055,1.025,2.137-1.035,3.48v0.002c-0.055,0.037-0.113,0.073-0.172,0.111c-2.777,1.748-6.686,1.316-9.443-0.066  c-0.027-0.015-0.053-0.026-0.078-0.047h-0.01c-2.285-1.188-2.033-2.664-0.562-3.779c0.148,0.936,0.857,1.826,2.049,2.424  c2.25,1.13,5.648,1.031,7.711-0.268C150.335,214.255,150.839,213.605,151.033,212.929z M162.486,205.853  c1.246,1.082,1.016,2.193-1.207,3.593c-2.777,1.749-6.684,1.318-9.443-0.065c-2.381-1.195-2.139-2.697-0.649-3.825  c0.147,0.935,0.856,1.825,2.049,2.423c2.25,1.13,5.647,1.032,7.711-0.266C161.789,207.182,162.292,206.529,162.486,205.853z   M160.074,206.328c-3.254,2.047-9.604-0.266-6.414-2.273C156.914,202.007,163.264,204.32,160.074,206.328z M165.113,196.979  c3.254-2.048,9.604,0.265,6.414,2.272C168.273,201.298,161.923,198.985,165.113,196.979z M173.941,198.776  c1.244,1.083,1.014,2.194-1.209,3.593c-0.58,0.365-1.209,0.635-1.867,0.821l0,0c-1.643,0.464-3.463,0.407-5.137,0h-0.002  c-0.867-0.211-1.693-0.515-2.438-0.887c-2.381-1.194-2.14-2.698-0.65-3.826c0.148,0.935,0.857,1.826,2.049,2.424  c2.25,1.128,5.648,1.031,7.711-0.267C173.242,200.104,173.746,199.453,173.941,198.776z M176.566,189.902  c3.256-2.048,9.604,0.266,6.414,2.271C179.727,194.222,173.376,191.91,176.566,189.902z M185.395,191.699  c1.244,1.083,1.015,2.195-1.207,3.594c-2.778,1.748-6.687,1.318-9.442-0.065c-2.382-1.194-2.142-2.698-0.652-3.826  c0.148,0.937,0.859,1.827,2.049,2.425c2.25,1.127,5.648,1.031,7.711-0.268C184.695,193.027,185.199,192.376,185.395,191.699z   M188.02,182.826c3.256-2.049,9.604,0.264,6.414,2.271C191.18,187.146,184.83,184.832,188.02,182.826z M196.848,184.623  c1.243,1.082,1.014,2.195-1.207,3.592c-2.777,1.75-6.687,1.32-9.442-0.063c-2.382-1.194-2.142-2.696-0.652-3.825  c0.147,0.936,0.858,1.826,2.049,2.424c2.25,1.129,5.648,1.029,7.711-0.268C196.148,185.951,196.652,185.298,196.848,184.623z   M199.475,175.75c3.254-2.047,9.603,0.265,6.412,2.271C202.632,180.069,196.285,177.755,199.475,175.75z M207.094,181.14  c-2.777,1.748-6.687,1.318-9.443-0.066c-2.381-1.195-2.142-2.697-0.651-3.824c0.147,0.935,0.858,1.824,2.049,2.424  c2.25,1.128,5.647,1.029,7.711-0.269c0.844-0.53,1.348-1.183,1.543-1.858C209.544,178.63,209.314,179.742,207.094,181.14z"></path><path d="M193.736,168.848c-0.348-0.433-0.836-0.821-1.453-1.13c-2.25-1.129-5.646-1.031-7.711,0.268  c-0.201,0.127-0.383,0.26-0.547,0.399c-0.385,0.166-0.758,0.36-1.115,0.587c-3.539,2.227-3.271,4.627-1.279,6.318  c-0.237-0.182-0.504-0.348-0.801-0.496c-2.25-1.129-5.647-1.03-7.711,0.267c-0.201,0.128-0.383,0.261-0.547,0.399  c-0.385,0.168-0.758,0.361-1.115,0.588c-3.539,2.227-3.271,4.628-1.281,6.32c-0.235-0.183-0.502-0.35-0.799-0.498  c-2.25-1.129-5.647-1.031-7.711,0.268c-0.201,0.127-0.383,0.261-0.547,0.4c-0.387,0.168-0.758,0.362-1.115,0.586  c-3.539,2.228-3.271,4.627-1.28,6.32c-0.236-0.182-0.502-0.349-0.8-0.498c-2.25-1.129-5.647-1.029-7.711,0.268  c-0.2,0.128-0.383,0.262-0.547,0.398c-0.385,0.17-0.758,0.362-1.115,0.588c-3.538,2.229-3.272,4.629-1.28,6.321  c-0.235-0.183-0.502-0.349-0.799-0.498c-2.25-1.13-5.648-1.032-7.711,0.267c-0.201,0.127-0.384,0.262-0.547,0.398  c-0.386,0.168-0.759,0.363-1.116,0.588c-3.265,2.053-3.291,4.26-1.712,5.915l0,0c0.133,0.14,0.277,0.274,0.432,0.405  c-0.186-0.145-0.392-0.276-0.616-0.405h-0.009c-0.058-0.032-0.115-0.062-0.175-0.092c-2.144-1.076-5.332-1.037-7.413,0.093  c-0.102,0.057-0.202,0.113-0.298,0.174c-0.201,0.129-0.384,0.262-0.547,0.399c-0.386,0.168-0.759,0.362-1.115,0.587  c-3.541,2.227-3.272,4.628-1.281,6.32c-0.236-0.182-0.502-0.348-0.798-0.496c-2.25-1.129-5.649-1.031-7.711,0.267  c-0.202,0.127-0.384,0.261-0.547,0.399c-0.386,0.168-0.759,0.361-1.116,0.586c-2.684,1.689-3.179,3.479-2.393,4.982  c0.25,0.479,0.631,0.931,1.112,1.338c-0.236-0.181-0.502-0.349-0.798-0.498c-2.25-1.127-5.649-1.029-7.712,0.27  c-0.201,0.125-0.383,0.262-0.547,0.4c-0.385,0.166-0.759,0.359-1.115,0.584c-3.541,2.229-3.272,4.629-1.281,6.322  c-0.236-0.182-0.502-0.35-0.799-0.498c-2.25-1.129-5.649-1.031-7.711,0.267c-0.202,0.127-0.383,0.261-0.547,0.399  c-0.385,0.166-0.758,0.361-1.115,0.586c-8.295,5.22,4.316,11.393,11.023,7.174c4.291-2.701,2.988-5.655-0.198-7.295  c-0.133-0.166-0.288-0.328-0.461-0.479c2.75,2.163,8.357,3.059,12.113,0.694c4.29-2.699,2.987-5.653-0.199-7.294  c-0.133-0.166-0.288-0.326-0.461-0.479c2.75,2.163,8.357,3.059,12.113,0.694c1.147-0.722,1.896-1.461,2.313-2.188v-0.002  c1.146-1.994-0.178-3.9-2.512-5.103c-0.133-0.165-0.288-0.325-0.462-0.479c2.75,2.164,8.358,3.062,12.113,0.695  c4.29-2.698,2.989-5.654-0.198-7.294c-0.134-0.167-0.289-0.326-0.462-0.478c2.75,2.162,8.358,3.06,12.114,0.694  c0.662-0.416,1.189-0.839,1.599-1.257v-0.004c2.245-2.319,0.897-4.646-1.798-6.032c-0.133-0.167-0.286-0.325-0.461-0.478  c2.75,2.162,8.357,3.058,12.113,0.693c4.291-2.699,2.988-5.652-0.199-7.294c-0.133-0.167-0.287-0.325-0.463-0.478  c2.752,2.162,8.359,3.058,12.115,0.695c4.291-2.701,2.988-5.655-0.199-7.295c-0.133-0.166-0.287-0.326-0.463-0.479  c2.752,2.163,8.359,3.059,12.115,0.695c4.291-2.699,2.988-5.654-0.197-7.295c-0.135-0.166-0.289-0.324-0.463-0.478  c2.75,2.162,8.357,3.06,12.113,0.695C198.225,173.443,196.921,170.488,193.736,168.848z M93.817,225.98  c3.254-2.048,9.603,0.266,6.414,2.271C96.976,230.3,90.627,227.987,93.817,225.98z M102.644,227.779  c1.244,1.081,1.014,2.195-1.207,3.594c-2.777,1.748-6.685,1.316-9.443-0.067c-2.381-1.194-2.14-2.696-0.652-3.826  c0.15,0.937,0.859,1.826,2.049,2.424c2.25,1.13,5.649,1.032,7.712-0.266C101.945,229.105,102.449,228.455,102.644,227.779z   M105.271,218.902c3.254-2.046,9.603,0.268,6.414,2.273C108.43,223.224,102.081,220.912,105.271,218.902z M114.097,220.701  c1.244,1.084,1.014,2.196-1.207,3.594c-2.778,1.748-6.686,1.317-9.444-0.065c-2.381-1.194-2.14-2.697-0.652-3.826  c0.149,0.937,0.859,1.827,2.049,2.425c2.25,1.129,5.649,1.03,7.711-0.267C113.398,222.03,113.902,221.378,114.097,220.701z   M116.724,211.828c3.254-2.049,9.603,0.266,6.414,2.271C119.883,216.146,113.534,213.835,116.724,211.828z M125.55,213.625  c0.994,0.864,1.047,1.75-0.104,2.785h-0.002c-0.289,0.26-0.655,0.527-1.1,0.81c-2.778,1.747-6.686,1.317-9.443-0.067  c-0.47-0.234-0.838-0.48-1.114-0.738h-0.002c-1.121-1.033-0.73-2.182,0.464-3.086c0.149,0.935,0.858,1.824,2.049,2.422  c0.642,0.323,1.376,0.545,2.147,0.664h1.603l-1.603,0.006c0.95,0.15,1.955,0.147,2.905-0.004h0.032  c0.972-0.153,1.886-0.465,2.627-0.932C124.852,214.953,125.356,214.302,125.55,213.625z M139.631,197.673  c3.253-2.047,9.604,0.265,6.414,2.273C142.789,201.994,136.441,199.681,139.631,197.673z M128.177,204.751  c3.254-2.047,9.604,0.266,6.414,2.271C131.336,209.071,124.987,206.759,128.177,204.751z M137.003,206.548  c1.245,1.082,1.014,2.195-1.207,3.593c-2.779,1.749-6.686,1.317-9.444-0.065c-2.381-1.195-2.14-2.697-0.652-3.826  c0.149,0.937,0.859,1.828,2.049,2.424c2.25,1.131,5.649,1.031,7.711-0.266C136.305,207.876,136.809,207.225,137.003,206.548z   M148.457,199.472c1.244,1.082,1.015,2.193-1.207,3.593c-0.067,0.044-0.137,0.085-0.207,0.126l0,0  c-2.631,1.523-6.186,1.196-8.841,0.002v-0.005c-0.135-0.062-0.266-0.124-0.395-0.188c-2.381-1.194-2.139-2.697-0.651-3.826  c0.149,0.937,0.859,1.828,2.048,2.425c2.25,1.13,5.648,1.032,7.71-0.267C147.757,200.8,148.264,200.147,148.457,199.472z   M151.083,190.598c3.254-2.047,9.604,0.266,6.412,2.272C154.242,194.917,147.895,192.605,151.083,190.598z M159.91,192.396  c1.244,1.082,1.014,2.195-1.207,3.594c-2.777,1.747-6.686,1.317-9.442-0.066c-2.382-1.194-2.142-2.696-0.652-3.826  c0.149,0.936,0.858,1.826,2.05,2.424c2.25,1.129,5.647,1.032,7.711-0.266C159.21,193.723,159.716,193.071,159.91,192.396z   M162.537,183.521c3.254-2.048,9.604,0.266,6.412,2.273C165.697,187.841,159.348,185.528,162.537,183.521z M171.363,185.318  c1.244,1.083,1.016,2.196-1.207,3.594c-2.777,1.748-6.686,1.317-9.443-0.065c-2.381-1.194-2.139-2.697-0.651-3.825  c0.149,0.936,0.858,1.827,2.049,2.424c2.25,1.128,5.65,1.029,7.711-0.268C170.664,186.646,171.167,185.994,171.363,185.318z   M173.99,176.445c3.254-2.049,9.604,0.264,6.412,2.271C177.15,180.765,170.8,178.453,173.99,176.445z M182.816,178.242  c1.244,1.084,1.016,2.194-1.207,3.594c-2.777,1.746-6.686,1.317-9.443-0.066c-2.381-1.193-2.139-2.696-0.651-3.825  c0.149,0.937,0.858,1.826,2.049,2.425c2.25,1.127,5.647,1.029,7.713-0.269C182.119,179.569,182.621,178.919,182.816,178.242z   M185.443,169.369c3.254-2.047,9.604,0.266,6.414,2.271C188.604,173.688,182.253,171.375,185.443,169.369z M193.062,174.757  c-2.777,1.75-6.686,1.318-9.443-0.064c-2.381-1.193-2.139-2.697-0.652-3.824c0.15,0.936,0.859,1.825,2.052,2.424  c2.248,1.129,5.647,1.028,7.711-0.269c0.842-0.53,1.347-1.183,1.541-1.858C195.514,172.248,195.285,173.361,193.062,174.757z"></path><path d="M258.167,194.08l-101.926-51.152c-1.52-0.789-2.762-1.183-3.832-1.306l3.9-2.505c2.631-1.687,4.775-5.765,4.775-9.096V6.634  c0-1.958-0.724-3.164-1.826-3.51c-3.615-1.458-6.951-3.312-10.961-1.305l-1.9,1.072L34.509,74.628  c-2.921,1.874-5.21,6.266-5.21,9.893v118.68v4.721c0.184,4.886,2.621,5.025,6.249,6.548l1.137,0.448  c-0.086,0.439-0.181,0.941-0.275,1.496h-0.001c-0.199,1.146-0.402,2.498-0.544,3.881c-0.226,2.188,1.297,3.982,1.084,6.205  l-0.118,1.078c-0.077,0.963,0.145,1.812,1.066,2.258l101.939,51.135c3.064,1.535,7.707,1.4,10.508-0.363l106.975-67.328  c1.798-1.131,1.964-5.546,2.136-7.419c0.516-0.532,0.453-1.614,0.453-1.614l0.062-1.061l0.356-6.048l0.029-0.482  C260.296,195.71,259.568,194.781,258.167,194.08z M159.164,6.634v123.387c0,2.725-1.852,6.17-3.893,7.479L52.908,203.198  l-13.276,8.521c-1.097,0.704-1.675,0.728-1.675-1.273v-7.245V87.059c0-2.724,1.851-6.168,3.891-7.477l115.64-74.221  C158.585,4.658,159.164,4.634,159.164,6.634z M36.035,87.059v116.142v7.245c0,1.203,0.271,2.121,0.737,2.729l-1.419-0.539  c-2.492-0.947-4.283-1.154-4.418-4.745v-4.69V84.521c0-3.112,2.04-6.967,4.458-8.518l113.94-73.132  c2.029-1.166,4.644-0.27,7.115,0.872L40.81,77.963C38.179,79.651,36.035,83.729,36.035,87.059z M258.119,203.185l-0.047,0.861  l-0.105,1.086c-0.03,0.162-0.067,0.326-0.104,0.39c-0.213,0.349-0.25,0.313-0.336,0.767c-0.121,1.524-0.396,4.515-1.231,5.363  L149.32,278.979c-2.195,1.381-6.119,1.528-8.621,0.272L38.752,228.145c-0.009-0.024-0.029-0.128-0.005-0.415l0.114-1.044  c0.118-1.226-0.173-2.312-0.485-3.3l-0.113-0.354l-0.375-1.278c-0.101-0.437-0.153-0.854-0.111-1.262  c0.152-1.465,0.373-2.891,0.582-4.068l0,0c0.023-0.133,0.047-0.262,0.07-0.387c0.205,0.137,0.425,0.264,0.653,0.381h0.003  c0.019,0.012,0.037,0.021,0.056,0.029l101.933,51.155c2.746,1.38,6.979,1.237,9.435-0.31l80.871-50.889l0,0h0.002l26.933-16.947  L258.119,203.185z M257.652,197.604l-108.166,68.062c-1.85,1.166-5.365,1.316-7.551,0.221l-32.723-16.424h-0.001l-65.84-33.045  l-3.368-1.688c-0.417-0.21-0.696-0.389-0.97-0.631l0.581-0.235l0.37-0.149c0.223-0.104,0.454-0.227,0.687-0.375l15.796-10.139h0.001  l92.609-59.439c1.529-0.621,3.215-0.719,6.289,0.88l101.938,51.158C258.852,196.574,258.621,196.994,257.652,197.604z"></path><path d="M179.705,162.468c-0.348-0.434-0.834-0.821-1.451-1.131c-2.25-1.129-5.647-1.03-7.711,0.267  c-0.201,0.126-0.383,0.261-0.547,0.399c-0.387,0.168-0.76,0.36-1.115,0.586c-3.541,2.229-3.272,4.63-1.28,6.322  c-0.236-0.183-0.502-0.351-0.8-0.498c-2.25-1.131-5.647-1.031-7.711,0.268c-0.202,0.128-0.385,0.26-0.549,0.4  c-0.385,0.166-0.758,0.36-1.112,0.586c-3.541,2.228-3.273,4.627-1.281,6.321c-0.235-0.183-0.502-0.35-0.799-0.499  c-2.25-1.13-5.647-1.031-7.711,0.268c-0.203,0.127-0.386,0.26-0.548,0.398c-0.387,0.168-0.76,0.362-1.114,0.588  c-3.541,2.229-3.272,4.629-1.281,6.321c-0.235-0.183-0.504-0.351-0.799-0.498c-2.25-1.13-5.65-1.032-7.712,0.265  c-0.202,0.129-0.384,0.262-0.547,0.401c-0.386,0.167-0.759,0.361-1.115,0.585c-3.54,2.229-3.273,4.631-1.282,6.322  c-0.235-0.182-0.502-0.348-0.798-0.497c-2.25-1.129-5.649-1.031-7.711,0.267c-0.201,0.127-0.384,0.26-0.546,0.399  c-0.387,0.168-0.759,0.362-1.116,0.586c-3.54,2.228-3.272,4.629-1.281,6.322c-0.235-0.183-0.502-0.351-0.799-0.499  c-2.25-1.127-5.648-1.029-7.71,0.268c-0.202,0.127-0.385,0.262-0.547,0.398c-0.386,0.17-0.759,0.363-1.116,0.588  c-2.83,1.781-3.227,3.672-2.254,5.222v0.002c0.244,0.39,0.574,0.759,0.973,1.099c-0.235-0.184-0.502-0.351-0.798-0.498  c-0.537-0.27-1.141-0.469-1.775-0.603h-0.022c-1.186-0.241-2.48-0.237-3.665,0.001v0.004c-0.83,0.17-1.604,0.459-2.249,0.864  c-0.201,0.128-0.384,0.263-0.546,0.399c-0.387,0.168-0.76,0.361-1.116,0.587c-3.54,2.227-3.273,4.628-1.281,6.319  c-0.236-0.182-0.502-0.348-0.798-0.496c-2.25-1.131-5.649-1.033-7.711,0.265c-0.202,0.128-0.384,0.262-0.547,0.401  c-0.386,0.168-0.759,0.362-1.116,0.588c-2.283,1.436-2.982,2.942-2.657,4.287c0.18,0.74,0.669,1.433,1.377,2.032  c-0.236-0.182-0.503-0.35-0.799-0.497c-2.25-1.129-5.649-1.031-7.711,0.266c-0.202,0.127-0.383,0.262-0.546,0.4  c-0.387,0.168-0.759,0.361-1.116,0.586c-8.295,5.221,4.317,11.394,11.023,7.172c4.291-2.701,2.988-5.654-0.198-7.293  c-0.133-0.166-0.289-0.326-0.462-0.479c2.751,2.162,8.358,3.059,12.114,0.695c1.516-0.954,2.333-1.94,2.616-2.885v-0.002  c0.52-1.736-0.754-3.348-2.815-4.408c-0.133-0.166-0.288-0.325-0.462-0.479c2.751,2.164,8.358,3.059,12.114,0.695  c4.29-2.7,2.988-5.653-0.198-7.294c-0.134-0.167-0.289-0.326-0.463-0.478c2.751,2.162,8.358,3.059,12.114,0.693  c1.025-0.645,1.731-1.305,2.168-1.95v-0.007c1.393-2.079,0.059-4.088-2.366-5.336c-0.134-0.167-0.288-0.326-0.463-0.479  c2.751,2.164,8.359,3.058,12.114,0.694c4.291-2.698,2.988-5.653-0.198-7.293c-0.134-0.168-0.288-0.327-0.462-0.478  c2.75,2.16,8.359,3.058,12.112,0.695c4.291-2.703,2.988-5.658-0.196-7.295c-0.136-0.167-0.287-0.326-0.463-0.478  c2.75,2.161,8.358,3.057,12.112,0.694c4.291-2.699,2.988-5.654-0.196-7.295c-0.134-0.166-0.287-0.326-0.464-0.478  c2.752,2.161,8.359,3.057,12.113,0.694c4.293-2.698,2.988-5.654-0.197-7.295c-0.133-0.166-0.286-0.326-0.463-0.477  c2.752,2.162,8.359,3.057,12.113,0.693C184.195,167.061,182.891,164.106,179.705,162.468z M79.787,219.599  c3.255-2.046,9.604,0.268,6.414,2.273C82.946,223.919,76.598,221.606,79.787,219.599z M88.613,221.397  c1.244,1.083,1.015,2.196-1.207,3.595c-2.778,1.746-6.686,1.315-9.443-0.068c-2.381-1.194-2.14-2.697-0.653-3.825  c0.149,0.935,0.859,1.827,2.049,2.424c2.25,1.13,5.649,1.031,7.711-0.265C87.915,222.726,88.419,222.074,88.613,221.397z   M91.24,212.522c3.254-2.048,9.603,0.267,6.414,2.272C94.399,216.841,88.05,214.531,91.24,212.522z M100.066,214.321  c0.768,0.668,0.974,1.347,0.498,2.093v0.006c-0.296,0.467-0.854,0.961-1.705,1.494c-2.778,1.748-6.686,1.316-9.443-0.065  c-0.893-0.447-1.417-0.938-1.645-1.435v-0.004c-0.38-0.83,0.063-1.683,0.992-2.388c0.147,0.92,0.836,1.796,1.99,2.392v0.002  c0.02,0.011,0.04,0.021,0.06,0.029c2.096,1.053,5.19,1.038,7.271-0.023H98.1c0.147-0.077,0.289-0.157,0.425-0.242  C99.368,215.648,99.872,214.998,100.066,214.321z M102.693,205.447c3.254-2.048,9.603,0.266,6.414,2.271  C105.853,209.767,99.504,207.455,102.693,205.447z M111.52,207.244c1.245,1.082,1.015,2.195-1.206,3.592  c-2.778,1.75-6.686,1.319-9.444-0.063c-2.38-1.194-2.139-2.696-0.652-3.826c0.149,0.937,0.859,1.826,2.049,2.425  c2.25,1.129,5.648,1.029,7.711-0.267C110.821,208.571,111.325,207.919,111.52,207.244z M114.147,198.369  c3.254-2.047,9.603,0.266,6.413,2.272C117.307,202.69,110.957,200.376,114.147,198.369z M122.973,200.167  c1.072,0.933,1.05,1.889-0.396,3.025v0.002c-0.233,0.184-0.503,0.371-0.811,0.564c-2.778,1.748-6.686,1.318-9.444-0.065  c-0.323-0.161-0.598-0.329-0.828-0.5v-0.002c-1.464-1.094-1.109-2.349,0.176-3.323c0.149,0.936,0.859,1.827,2.05,2.424  c2.249,1.131,5.648,1.03,7.71-0.269C122.274,201.494,122.779,200.843,122.973,200.167z M125.6,191.294  c3.254-2.049,9.603,0.264,6.413,2.272C128.759,195.613,122.411,193.3,125.6,191.294z M134.426,193.089  c1.245,1.082,1.015,2.195-1.206,3.596c-2.778,1.747-6.686,1.316-9.444-0.066c-2.38-1.195-2.139-2.697-0.651-3.826  c0.149,0.936,0.859,1.826,2.049,2.424c2.25,1.129,5.648,1.031,7.711-0.266C133.728,194.417,134.232,193.767,134.426,193.089z   M137.053,184.216c3.253-2.045,9.603,0.266,6.413,2.273C140.213,188.537,133.864,186.224,137.053,184.216z M145.878,186.014  c1.246,1.084,1.017,2.196-1.207,3.594c-2.776,1.748-6.685,1.317-9.442-0.065c-2.381-1.193-2.14-2.696-0.651-3.826  c0.149,0.935,0.859,1.826,2.048,2.425c2.251,1.129,5.649,1.028,7.711-0.267C145.182,187.343,145.686,186.691,145.878,186.014z   M148.505,177.14c3.254-2.047,9.604,0.266,6.414,2.271C151.666,181.458,145.316,179.148,148.505,177.14z M157.333,178.938  c1.244,1.083,1.015,2.194-1.209,3.593c-2.776,1.747-6.684,1.317-9.442-0.066c-2.379-1.193-2.14-2.695-0.649-3.824  c0.147,0.936,0.858,1.826,2.049,2.425c2.25,1.126,5.647,1.029,7.711-0.271C156.634,180.266,157.139,179.614,157.333,178.938z   M159.958,170.065c3.256-2.049,9.604,0.265,6.414,2.271C163.119,174.382,156.77,172.071,159.958,170.065z M168.787,171.86  c1.244,1.083,1.014,2.196-1.207,3.595c-2.776,1.748-6.686,1.317-9.442-0.065c-2.382-1.194-2.142-2.697-0.652-3.825  c0.147,0.936,0.859,1.826,2.05,2.423c2.25,1.13,5.647,1.029,7.711-0.267C168.087,173.188,168.591,172.537,168.787,171.86z   M171.414,162.987c3.254-2.047,9.603,0.265,6.412,2.271C174.572,167.307,168.223,164.994,171.414,162.987z M179.033,168.378  c-2.777,1.748-6.686,1.316-9.443-0.065c-2.381-1.196-2.141-2.699-0.651-3.826c0.149,0.935,0.858,1.826,2.049,2.425  c2.25,1.129,5.648,1.029,7.712-0.27c0.844-0.531,1.348-1.182,1.543-1.857C181.484,165.869,181.253,166.981,179.033,168.378z"></path><g><path d="M165.675,156.087c-0.348-0.435-0.836-0.822-1.452-1.131c-2.248-1.129-5.647-1.03-7.711,0.267   c-0.201,0.127-0.384,0.26-0.548,0.399c-0.385,0.166-0.76,0.361-1.114,0.586c-3.539,2.228-3.271,4.629-1.281,6.322   c-0.235-0.182-0.502-0.351-0.799-0.498c-2.25-1.13-5.647-1.031-7.711,0.268c-0.201,0.126-0.384,0.261-0.547,0.4   c-0.386,0.166-0.759,0.359-1.115,0.586c-3.539,2.228-3.271,4.629-1.281,6.32c-0.236-0.182-0.502-0.348-0.799-0.497   c-2.25-1.13-5.648-1.032-7.711,0.267c-0.201,0.127-0.383,0.261-0.547,0.399c-0.385,0.167-0.758,0.362-1.115,0.586   c-3.541,2.228-3.272,4.628-1.281,6.321c-0.235-0.182-0.502-0.35-0.799-0.497c-2.25-1.13-5.648-1.032-7.711,0.267   c-0.202,0.127-0.383,0.26-0.547,0.398c-0.385,0.167-0.759,0.361-1.116,0.587c-3.54,2.229-3.272,4.629-1.281,6.321   c-0.235-0.182-0.502-0.35-0.799-0.497c-2.25-1.13-5.648-1.031-7.71,0.266c-0.202,0.127-0.384,0.261-0.547,0.401   c-0.385,0.167-0.758,0.361-1.115,0.586c-3.541,2.229-3.272,4.628-1.281,6.32c-0.235-0.183-0.502-0.349-0.798-0.498   c-2.25-1.129-5.648-1.03-7.711,0.268c-0.202,0.127-0.384,0.26-0.547,0.398c-0.385,0.168-0.758,0.363-1.115,0.588   c-3.541,2.229-3.273,4.629-1.282,6.322c-0.235-0.184-0.502-0.352-0.798-0.5c-2.25-1.129-5.649-1.029-7.711,0.268   c-0.202,0.128-0.383,0.262-0.547,0.4c-0.386,0.168-0.759,0.36-1.115,0.586c-2.42,1.521-3.06,3.127-2.588,4.527v0.002   c0.219,0.649,0.677,1.256,1.307,1.791c-0.236-0.182-0.503-0.348-0.799-0.496c-2.25-1.131-5.648-1.031-7.711,0.266   c-0.201,0.128-0.383,0.262-0.547,0.4c-0.386,0.168-0.759,0.362-1.115,0.586c-3.54,2.229-3.273,4.629-1.281,6.322   c-0.236-0.183-0.502-0.35-0.799-0.499c-2.25-1.13-5.649-1.032-7.711,0.267c-0.202,0.127-0.384,0.263-0.547,0.398   c-0.386,0.168-0.759,0.363-1.116,0.588c-1.895,1.191-2.699,2.437-2.731,3.594v0.002l0,0c-0.104,3.904,8.582,6.83,13.754,3.576   c1.884-1.186,2.689-2.418,2.731-3.574l0,0v-0.002l0,0v-0.002c0.049-1.467-1.145-2.799-2.929-3.715   c-0.133-0.166-0.288-0.326-0.462-0.479c2.751,2.163,8.359,3.059,12.114,0.695c4.291-2.699,2.987-5.653-0.198-7.295   c-0.133-0.168-0.288-0.326-0.462-0.478c2.75,2.163,8.358,3.058,12.114,0.695c1.387-0.873,2.189-1.771,2.533-2.646l0,0   c0.719-1.827-0.575-3.538-2.731-4.649c-0.133-0.166-0.288-0.324-0.462-0.477c2.75,2.161,8.358,3.057,12.114,0.694   c4.291-2.699,2.988-5.654-0.198-7.293c-0.134-0.167-0.288-0.328-0.462-0.479c2.75,2.161,8.358,3.059,12.113,0.694   c4.291-2.7,2.988-5.655-0.198-7.294c-0.134-0.167-0.288-0.326-0.462-0.479c2.75,2.162,8.358,3.059,12.113,0.695   c4.291-2.699,2.989-5.654-0.198-7.294c-0.133-0.165-0.287-0.325-0.462-0.478c2.75,2.162,8.358,3.058,12.114,0.695   c4.291-2.699,2.987-5.654-0.199-7.296c-0.133-0.166-0.287-0.325-0.461-0.476c2.75,2.16,8.356,3.057,12.112,0.693   c4.291-2.701,2.988-5.656-0.198-7.293c-0.134-0.168-0.287-0.326-0.461-0.479c2.75,2.161,8.356,3.059,12.112,0.693   C170.164,160.681,168.861,157.727,165.675,156.087z M65.756,213.218c3.254-2.047,9.604,0.266,6.414,2.273   C68.916,217.539,62.567,215.227,65.756,213.218z M73.652,216.417h0.002c0.481-0.429,0.788-0.908,0.929-1.4   c0.523,0.455,0.786,0.915,0.75,1.398v0.002c-0.05,0.668-0.668,1.383-1.957,2.191c-2.777,1.749-6.685,1.318-9.444-0.066   c-1.3-0.652-1.818-1.397-1.778-2.125c0.035-0.602,0.452-1.188,1.126-1.699c0.097,0.605,0.43,1.193,0.976,1.697h0.003   c0.295,0.271,0.653,0.517,1.07,0.727c2.25,1.128,5.649,1.031,7.711-0.268C73.269,216.731,73.472,216.58,73.652,216.417z    M77.209,206.143c3.255-2.048,9.604,0.265,6.414,2.271C80.369,210.462,74.02,208.149,77.209,206.143z M86.036,207.939   c1.244,1.082,1.015,2.195-1.207,3.594c-2.777,1.747-6.685,1.317-9.443-0.066c-2.38-1.193-2.14-2.695-0.652-3.824   c0.149,0.936,0.859,1.824,2.049,2.422c2.25,1.13,5.649,1.033,7.711-0.266C85.338,209.268,85.842,208.617,86.036,207.939z    M88.663,199.065c3.254-2.048,9.603,0.265,6.414,2.271C91.823,203.385,85.474,201.072,88.663,199.065z M97.49,200.862   c0.845,0.735,1.01,1.485,0.333,2.331h-0.001c-0.32,0.396-0.827,0.814-1.539,1.264c-2.777,1.748-6.685,1.318-9.443-0.065   c-0.744-0.374-1.231-0.777-1.505-1.194H85.33c-0.597-0.908-0.164-1.855,0.857-2.632c0.149,0.935,0.858,1.827,2.049,2.425   c0.148,0.073,0.301,0.145,0.459,0.207c1.893,0.766,4.405,0.762,6.3,0.001h0.009c0.336-0.136,0.652-0.293,0.943-0.477   C96.791,202.189,97.295,201.539,97.49,200.862z M100.116,191.989c3.254-2.047,9.604,0.265,6.414,2.272   C103.276,196.309,96.927,193.996,100.116,191.989z M108.943,193.787c1.245,1.084,1.015,2.194-1.207,3.594   c-2.777,1.746-6.685,1.317-9.443-0.067c-2.381-1.192-2.14-2.694-0.652-3.824c0.149,0.935,0.859,1.826,2.049,2.423   c2.25,1.129,5.649,1.031,7.711-0.268C108.244,195.114,108.748,194.462,108.943,193.787z M111.569,184.912   c3.254-2.045,9.604,0.267,6.414,2.273C114.729,189.232,108.38,186.919,111.569,184.912z M120.396,186.708   c1.245,1.084,1.015,2.196-1.207,3.594c-2.778,1.75-6.686,1.32-9.444-0.064c-2.38-1.195-2.139-2.697-0.651-3.824   c0.149,0.935,0.858,1.825,2.049,2.422c2.25,1.129,5.648,1.031,7.71-0.266C119.698,188.037,120.202,187.386,120.396,186.708z    M123.023,177.835c3.254-2.047,9.604,0.267,6.414,2.271C126.182,182.156,119.833,179.843,123.023,177.835z M131.85,179.634   c1.245,1.084,1.015,2.195-1.208,3.594c-2.777,1.747-6.685,1.316-9.443-0.066c-2.381-1.195-2.139-2.697-0.651-3.826   c0.149,0.936,0.859,1.828,2.049,2.426c2.25,1.127,5.648,1.029,7.711-0.27C131.15,180.96,131.655,180.31,131.85,179.634z    M134.476,170.76c3.254-2.048,9.604,0.265,6.415,2.271C137.636,175.078,131.287,172.767,134.476,170.76z M143.303,172.557   c1.243,1.083,1.016,2.196-1.207,3.595c-2.777,1.746-6.685,1.316-9.444-0.066c-2.381-1.193-2.14-2.698-0.651-3.825   c0.149,0.936,0.859,1.827,2.049,2.422c2.25,1.13,5.65,1.032,7.71-0.267C142.604,173.882,143.107,173.233,143.303,172.557z    M145.93,163.684c3.254-2.049,9.604,0.264,6.414,2.271C149.089,168.001,142.74,165.689,145.93,163.684z M154.755,165.48   c1.244,1.082,1.017,2.195-1.207,3.593c-2.776,1.748-6.686,1.318-9.442-0.063c-2.381-1.196-2.141-2.698-0.651-3.827   c0.149,0.937,0.858,1.825,2.051,2.424c2.248,1.13,5.647,1.03,7.709-0.269C154.059,166.807,154.562,166.156,154.755,165.48z    M157.382,156.607c3.255-2.049,9.604,0.264,6.414,2.271C160.542,160.925,154.193,158.613,157.382,156.607z M165.001,161.998   c-2.776,1.746-6.686,1.317-9.442-0.067c-2.381-1.194-2.14-2.696-0.651-3.823c0.149,0.934,0.858,1.824,2.051,2.422   c2.248,1.131,5.647,1.032,7.709-0.267c0.846-0.531,1.35-1.183,1.543-1.857C167.453,159.487,167.223,160.6,165.001,161.998z"></path><path d="M154.02,121.094V26.195c0-4.062-2.979-6.184-6.515-3.916L48.436,85.864c-3.005,1.93-5.335,6.409-5.335,10.123v94.897   c0,4.062,2.979,6.185,6.513,3.914l99.07-63.584C151.689,129.287,154.02,124.807,154.02,121.094z M48.436,192.966   c-1.73,1.109-3.045,0.639-3.154-1.913c1.057,0.524,2.468,0.36,3.854-0.528l96.596-61.996c2.838-1.823,5.084-6.122,5.084-9.663   V27.783c0-1.835-0.637-3.257-1.723-3.906c1.596-0.823,2.746-0.151,2.746,2.318v94.898c0,3.027-1.998,6.788-4.334,8.288   L48.436,192.966z"></path></g></g>
</svg>
</g></svg></svg>